<?xml version="1.0" encoding="UTF-8" ?>
<!DOCTYPE svg PUBLIC "-//W3C//DTD SVG 1.1//EN" "http://www.w3.org/Graphics/SVG/1.1/DTD/svg11.dtd">
<svg width="1084pt" height="923pt" viewBox="0 0 1084 923" version="1.1" xmlns="http://www.w3.org/2000/svg">


<defs>
	<mask id="mask2">
		<path fill="#ffffff" fill-opacity="1.0" d=" M 58.03 840.01 C 213.73 570.48 369.40 300.94 525.10 31.40 C 543.16 61.68 560.40 92.47 578.20 122.92 C 725.68 378.40 873.35 633.78 1020.77 889.29 C 690.45 889.40 360.13 889.35 29.80 889.32 C 38.80 872.65 48.72 856.50 58.03 840.01 Z" />
		<path fill="#000000" d=" M 379.64 437.76 C 430.90 437.69 482.17 437.74 533.43 437.73 C 533.45 447.41 533.42 457.10 533.45 466.79 C 516.76 467.17 500.03 466.31 483.37 467.25 C 488.91 477.25 494.44 487.26 499.98 497.26 C 526.77 497.34 553.55 497.24 580.34 497.32 C 580.37 507.01 580.37 516.70 580.35 526.39 C 558.97 526.49 537.58 526.20 516.20 526.54 C 537.43 564.89 558.66 603.24 579.91 641.59 C 569.12 641.86 558.33 641.70 547.55 641.67 C 526.37 603.19 505.10 564.77 483.73 526.40 C 464.66 526.40 445.60 526.35 426.54 526.43 C 426.41 516.71 426.53 506.99 426.50 497.28 C 440.12 497.29 453.75 497.32 467.37 497.27 C 463.04 488.27 457.79 479.76 453.12 470.94 C 452.02 469.37 451.42 466.60 448.99 466.90 C 425.86 466.73 402.73 466.98 379.60 466.78 C 379.66 457.11 379.61 447.43 379.64 437.76 Z" />
		<path fill="#000000" fill-opacity="1.0" d=" M 305.74 548.22 C 357.02 548.09 408.31 548.20 459.59 548.17 C 459.64 557.87 459.63 567.57 459.60 577.27 C 439.47 577.32 419.33 577.26 399.20 577.31 C 399.17 635.39 399.24 693.46 399.16 751.54 C 389.38 751.57 379.60 751.60 369.83 751.52 C 369.70 693.43 369.88 635.35 369.74 577.27 C 348.39 577.28 327.05 577.35 305.71 577.24 C 305.80 567.57 305.76 557.89 305.74 548.22 Z" />
		<path fill="#000000" fill-opacity="1.0" d=" M 379.64 437.76 C 430.90 437.69 482.17 437.74 533.43 437.73 C 533.45 447.41 533.42 457.10 533.45 466.79 C 516.76 467.17 500.03 466.31 483.37 467.25 C 488.91 477.25 494.44 487.26 499.98 497.26 C 526.77 497.34 553.55 497.24 580.34 497.32 C 580.37 507.01 580.37 516.70 580.35 526.39 C 558.97 526.49 537.58 526.20 516.20 526.54 C 537.43 564.89 558.66 603.24 579.91 641.59 C 569.12 641.86 558.33 641.70 547.55 641.67 C 526.37 603.19 505.10 564.77 483.73 526.40 C 464.66 526.40 445.60 526.35 426.54 526.43 C 426.41 516.71 426.53 506.99 426.50 497.28 C 440.12 497.29 453.75 497.32 467.37 497.27 C 463.04 488.27 457.79 479.76 453.12 470.94 C 452.02 469.37 451.42 466.60 448.99 466.90 C 425.86 466.73 402.73 466.98 379.60 466.78 C 379.66 457.11 379.61 447.43 379.64 437.76 Z" />
		<path fill="#000000" fill-opacity="1.0" d=" M 620.80 535.58 C 630.59 535.49 640.38 535.44 650.18 535.61 C 650.20 597.87 650.14 660.12 650.21 722.38 C 670.91 722.34 691.62 722.38 712.33 722.37 C 712.45 732.08 712.33 741.80 712.40 751.52 C 661.33 751.60 610.26 751.56 559.19 751.54 L 558.61 750.93 C 558.44 741.48 558.69 732.01 558.49 722.56 C 579.24 722.13 600.01 722.45 620.77 722.40 C 620.86 660.12 620.80 597.85 620.80 535.58 Z" />
	</mask>
</defs>
<path fill="#CC0000" mask="url(#mask2)" fill-opacity="1.0" d=" M 498.53 355.95 C 536.29 352.10 574.97 356.95 610.54 370.29 C 646.90 383.86 680.02 406.15 706.21 434.80 C 733.88 464.73 753.89 501.65 763.90 541.16 C 773.01 576.94 773.99 614.75 766.71 650.95 C 754.96 711.08 719.59 766.04 670.08 802.06 C 646.45 819.40 619.73 832.54 591.51 840.47 C 555.95 850.60 518.11 852.41 481.68 846.28 C 442.37 839.58 404.79 823.12 373.20 798.78 C 341.48 774.48 315.63 742.45 298.98 706.09 C 282.99 671.81 275.18 633.75 276.26 595.95 C 277.19 552.13 290.26 508.68 313.49 471.53 C 334.45 437.72 363.76 409.22 397.99 388.98 C 428.60 370.90 463.15 359.49 498.53 355.95 Z" />
<path fill="#CC0000" d=" M 495.91 160.94 C 505.67 144.40 514.94 127.57 524.87 111.14 C 565.56 181.75 606.38 252.27 647.11 322.85 C 653.35 333.92 660.09 344.71 665.99 355.96 C 634.76 338.20 600.26 326.07 564.64 321.14 C 502.74 312.25 437.96 324.30 383.75 355.59 C 401.64 323.70 420.27 292.22 438.44 260.48 C 457.60 227.30 476.83 194.16 495.91 160.94 Z" />
<path fill="#CC0000" d=" M 97.20 851.35 C 144.93 768.53 192.90 685.85 240.54 602.98 C 240.81 639.83 248.00 676.69 262.22 710.73 C 278.74 750.58 304.58 786.54 336.99 814.99 C 352.69 829.03 370.27 840.78 388.48 851.29 C 338.32 851.62 288.16 851.34 238.00 851.43 C 191.06 851.38 144.13 851.55 97.20 851.35 Z" />
<path fill="#CC0000" d=" M 808.38 602.11 C 855.45 683.52 902.48 764.95 949.49 846.39 C 950.46 848.02 951.39 849.68 952.27 851.38 C 899.85 851.50 847.42 851.40 795.00 851.43 C 750.19 851.33 705.38 851.64 660.57 851.28 C 669.30 845.80 678.36 840.82 686.69 834.73 C 730.94 803.99 766.10 760.35 786.68 710.55 C 801.02 676.30 808.05 639.19 808.38 602.11 Z" />
</svg>
